<?xml version="1.0" encoding="UTF-8" standalone="no"?>
<!-- Created with Inkscape (http://www.inkscape.org/) -->

<svg
   xmlns:dc="http://purl.org/dc/elements/1.1/"
   xmlns:cc="http://creativecommons.org/ns#"
   xmlns:rdf="http://www.w3.org/1999/02/22-rdf-syntax-ns#"
   xmlns:svg="http://www.w3.org/2000/svg"
   xmlns="http://www.w3.org/2000/svg"
   version="1.1"
   width="170"
   height="169.99997"
   id="svg2">
  <defs
     id="defs4" />
  <metadata
     id="metadata7">
    <rdf:RDF>
      <cc:Work
         rdf:about="">
        <dc:format>image/svg+xml</dc:format>
        <dc:type
           rdf:resource="http://purl.org/dc/dcmitype/StillImage" />
        <dc:title></dc:title>
      </cc:Work>
    </rdf:RDF>
  </metadata>
  <g
     transform="translate(0,-882.36222)"
     id="layer1">
    <path
       d="M 24.836221,1046.0607 C 14.95544,1035.164 7.8456537,1021.0926 3.1684258,1003.1768 1.1955381,993.67068 0.38816634,983.29522 0.14290343,973.13309 -0.40260396,950.53124 0.52921728,940.43072 4.4081778,926.89918 10.336882,906.21726 27.434813,880.33409 33.595845,882.71435 c 2.731969,1.05548 1.949937,3.26483 -3.224634,9.10999 -8.006466,9.04404 -14.312481,22.9589 -18.263251,40.2997 -2.3717562,10.41012 -3.0409312,50.24285 -1.063792,63.3222 2.927435,19.36586 10.269059,37.34496 19.321687,47.31716 5.264442,5.7993 6.018427,8.8441 2.322217,9.3778 -1.486537,0.2147 -3.692811,-1.4939 -7.851851,-6.0805 z m 110.342359,5.617 c -1.49352,-1.5036 -0.39075,-3.8065 4.29405,-8.9672 9.54627,-10.5161 17.2627,-30.9012 19.70743,-52.06276 1.68777,-14.60937 0.60077,-48.05202 -1.91831,-59.0184 -3.98263,-17.33775 -10.166,-31.13363 -17.83895,-39.80093 -5.0424,-5.69587 -6.00295,-8.31589 -3.41525,-9.31562 6.19643,-2.39393 23.42584,24.24119 29.45054,45.52791 5.83286,20.60884 6.08239,55.66431 0.54761,76.9309 -5.97083,22.9419 -25.31716,52.2535 -30.82712,46.7061 z M 27.405104,1024.2059 c 0,-0.7797 0.857134,-1.6914 1.904751,-2.0261 2.773981,-0.8864 3.646455,-4.8682 5.484595,-25.0306 1.701501,-18.66372 1.467668,-20.99644 -2.104629,-20.99644 -0.744571,0 -1.353769,-0.68586 -1.353769,-1.52413 0,-1.27195 1.33099,-1.42958 8.053479,-1.23676 l 8.053469,0.28736 6.469799,16.25223 c 3.558388,8.93872 6.960725,16.41694 7.560745,16.61834 0.609985,0.2047 3.779134,-6.088 7.188513,-14.27344 3.353669,-8.05175 6.297927,-16.06993 7.502754,-16.86566 l 1.405176,-2.22617 7.34787,0 c 7.837199,0 9.80793,1.52211 4.891032,3.77761 -2.88785,1.32472 -2.817693,-0.34552 -0.999571,23.79566 1.401825,18.6133 2.159289,21.8973 5.050845,21.8973 0.74458,0 1.353779,0.6678 1.353779,1.4841 0,1.2244 -1.795244,1.4841 -10.260736,1.4841 -10.407444,0 -13.720948,-1.1239 -8.831488,-2.9954 l 2.646255,-1.013 -0.715708,-16.5473 c -0.393638,-9.10094 -1.08845,-17.21499 -1.544027,-18.03125 -0.922082,-1.65212 -0.198061,-3.14804 -10.775336,22.26175 -4.956688,11.9073 -7.016878,15.8305 -8.313148,15.8305 -1.307904,0 -3.123589,-3.5778 -7.531754,-14.8411 -3.194621,-8.1627 -7.618478,-16.22242 -7.384284,-18.3041 l -1.575887,-3.46294 -0.763734,2.0369 c -0.420058,1.12031 -2.163827,8.33029 -1.477034,15.97544 l -0.71331,13.9386 2.56913,1.6947 c 3.843601,2.5356 2.290661,3.4572 -5.825251,3.4572 -5.691993,0 -7.312526,-0.3141 -7.312526,-1.4174 z m 72.230014,0.4261 c -0.334671,-0.5451 0.625242,-1.4635 2.133162,-2.0406 4.15828,-1.5918 2.12845,-2.0641 4.24072,-23.46823 l 0.015,-20.06892 -3.43812,-2.04231 c -1.89096,-1.12327 -3.191563,-2.44396 -2.890217,-2.93486 0.972117,-1.58359 24.017597,-1.11889 24.017597,0.4843 0,0.75728 -1.09885,1.65452 -2.44187,1.99389 -3.37334,0.85241 -3.55921,2.27594 -3.24175,24.82753 l 0.27857,19.7882 6.17008,0.2952 6.17008,0.2954 2.67455,-2.8893 c 1.471,-1.589 3.40364,-3.9481 4.29476,-5.2423 0.89111,-1.2943 1.97188,-2.0071 2.40171,-1.5842 0.98581,0.9701 0.61004,7.9464 -0.60067,11.1525 l -0.91576,2.425 -19.12969,0 c -11.7169,0 -19.36549,-0.3841 -19.738192,-0.9913 z M 36.249736,946.08303 c 0,-0.75727 1.142294,-1.6655 2.538448,-2.01829 2.823502,-0.71346 5.173745,-5.36689 15.714434,-31.11423 l 5.82417,-14.22648 4.338656,-1.88618 c 2.386252,-1.0374 4.694543,-1.52787 5.129532,-1.08993 0.434979,0.43794 4.342645,10.76026 8.683708,22.93849 8.342174,23.40281 8.872646,24.48837 12.678265,25.94509 1.603109,0.61363 2.083058,1.25385 1.431651,1.90968 -1.28885,1.2976 -22.921655,0.76508 -22.968689,-0.56541 -0.01926,-0.54417 0.894045,-1.13525 2.029519,-1.3135 3.089351,-0.48499 3.223576,-2.13469 0.743676,-9.13954 l -2.254054,-6.36692 -8.337982,0 -8.337971,0 -1.817739,3.88663 c -0.999756,2.13765 -3.076754,5.48815 -2.343719,7.14993 l -0.525991,3.26329 2.640811,1.01086 c 4.575784,1.75154 1.725047,2.99337 -6.871463,2.99337 -6.431207,0 -8.295262,-0.3094 -8.295262,-1.37686 z M 62.13581,908.16082 c -1.053032,-0.3534 -6.231337,11.97521 -6.231337,14.83568 0,1.42669 0.968172,1.70697 5.896421,1.70697 l 6.85321,0 C 67.839335,921.05371 65.408398,910.0922 62.13581,908.16082 z m 35.388831,37.78829 c -0.854539,-2.242 3.916149,-8.5424 11.949349,-15.7809 7.9613,-7.1737 10.30837,-11.16148 10.30837,-17.51438 0,-6.97067 -4.69715,-11.93328 -9.09031,-9.60406 -3.05463,1.61955 -3.65285,2.7737 -3.67022,7.08113 -0.0196,4.85724 -3.70011,7.09401 -6.89021,4.18742 -6.141353,-5.59559 3.04256,-15.33949 14.4579,-15.33949 10.64448,0 16.95376,6.15208 15.48274,15.09697 -0.32008,6.28678 -6.20029,9.60295 -10.4037,13.72724 -11.75539,11.53411 -12.07701,12.73098 -3.42109,12.73098 l 6.29246,0 2.88464,-3.6202 c 3.80092,-4.77013 5.6122,-3.80111 4.6737,2.50042 -0.37539,2.52049 -1.09667,5.36187 -1.60284,6.31418 l -0.92033,1.73147 -14.73732,0 c -12.30884,0 -14.832197,-0.24896 -15.313139,-1.51078 z"
       id="path3069"
       style="fill:#000000" />
  </g>
</svg>
